<mxfile host="Electron" modified="2024-03-01T00:44:56.534Z" agent="Mozilla/5.0 (Windows NT 10.0; Win64; x64) AppleWebKit/537.36 (KHTML, like Gecko) draw.io/22.1.21 Chrome/120.0.6099.109 Electron/28.1.0 Safari/537.36" etag="h3s9UczmruEK1PVpuIIq" version="22.1.21" type="device">
  <diagram name="Page-1" id="FKEZsfpMdNEt7M-9DOOr">
    <mxGraphModel dx="2280" dy="830" grid="1" gridSize="10" guides="1" tooltips="1" connect="1" arrows="1" fold="1" page="1" pageScale="1" pageWidth="850" pageHeight="1100" math="0" shadow="0">
      <root>
        <mxCell id="0" />
        <mxCell id="1" parent="0" />
        <mxCell id="2fvg3ockp_e8WgSGMWj1-5" value="" style="rounded=0;whiteSpace=wrap;html=1;fillColor=#d5e8d4;strokeColor=#82b366;movable=0;resizable=0;rotatable=0;deletable=0;editable=0;locked=1;connectable=0;" parent="1" vertex="1">
          <mxGeometry x="10" y="110" width="850" height="680" as="geometry" />
        </mxCell>
        <mxCell id="2fvg3ockp_e8WgSGMWj1-4" value="" style="rounded=0;whiteSpace=wrap;html=1;fillColor=#dae8fc;strokeColor=#6c8ebf;movable=1;resizable=1;rotatable=1;deletable=1;editable=1;locked=0;connectable=1;" parent="1" vertex="1">
          <mxGeometry x="-211" y="110" width="210" height="400" as="geometry" />
        </mxCell>
        <mxCell id="2fvg3ockp_e8WgSGMWj1-3" value="Data Cleaning" style="text;html=1;strokeColor=none;fillColor=none;align=center;verticalAlign=middle;whiteSpace=wrap;rounded=0;" parent="1" vertex="1">
          <mxGeometry x="-211" y="110" width="100" height="30" as="geometry" />
        </mxCell>
        <mxCell id="2fvg3ockp_e8WgSGMWj1-6" value="Modeling" style="text;html=1;strokeColor=none;fillColor=none;align=center;verticalAlign=middle;whiteSpace=wrap;rounded=0;" parent="1" vertex="1">
          <mxGeometry x="10" y="110" width="60" height="30" as="geometry" />
        </mxCell>
        <mxCell id="2fvg3ockp_e8WgSGMWj1-9" value="" style="edgeStyle=orthogonalEdgeStyle;rounded=0;orthogonalLoop=1;jettySize=auto;html=1;" parent="1" source="2fvg3ockp_e8WgSGMWj1-7" target="2fvg3ockp_e8WgSGMWj1-8" edge="1">
          <mxGeometry relative="1" as="geometry" />
        </mxCell>
        <mxCell id="2fvg3ockp_e8WgSGMWj1-7" value="Import Raw BRFSS Data&amp;nbsp;&lt;br&gt;(700 mb, 440k entries, 330 features)" style="rounded=1;whiteSpace=wrap;html=1;" parent="1" vertex="1">
          <mxGeometry x="-191" y="140" width="160" height="60" as="geometry" />
        </mxCell>
        <mxCell id="2fvg3ockp_e8WgSGMWj1-13" value="" style="edgeStyle=orthogonalEdgeStyle;rounded=0;orthogonalLoop=1;jettySize=auto;html=1;" parent="1" source="2fvg3ockp_e8WgSGMWj1-8" target="2fvg3ockp_e8WgSGMWj1-12" edge="1">
          <mxGeometry relative="1" as="geometry" />
        </mxCell>
        <mxCell id="2fvg3ockp_e8WgSGMWj1-8" value="Downselect Features Based on Relevance&amp;nbsp;&lt;br&gt;(34 Features)" style="rounded=1;whiteSpace=wrap;html=1;" parent="1" vertex="1">
          <mxGeometry x="-191" y="230" width="160" height="60" as="geometry" />
        </mxCell>
        <mxCell id="2fvg3ockp_e8WgSGMWj1-15" value="" style="edgeStyle=orthogonalEdgeStyle;rounded=0;orthogonalLoop=1;jettySize=auto;html=1;" parent="1" source="2fvg3ockp_e8WgSGMWj1-12" target="2fvg3ockp_e8WgSGMWj1-14" edge="1">
          <mxGeometry relative="1" as="geometry" />
        </mxCell>
        <mxCell id="2fvg3ockp_e8WgSGMWj1-12" value="Encode Features (Mix of Binary, Categorical, and Ordinal)" style="rounded=1;whiteSpace=wrap;html=1;" parent="1" vertex="1">
          <mxGeometry x="-191" y="330" width="160" height="60" as="geometry" />
        </mxCell>
        <mxCell id="2fvg3ockp_e8WgSGMWj1-14" value="Export to CSV" style="rounded=1;whiteSpace=wrap;html=1;" parent="1" vertex="1">
          <mxGeometry x="-191" y="420" width="160" height="60" as="geometry" />
        </mxCell>
        <mxCell id="2fvg3ockp_e8WgSGMWj1-16" value="" style="endArrow=classic;html=1;rounded=0;exitX=1;exitY=0.5;exitDx=0;exitDy=0;entryX=0;entryY=0.5;entryDx=0;entryDy=0;" parent="1" source="2fvg3ockp_e8WgSGMWj1-14" target="2fvg3ockp_e8WgSGMWj1-17" edge="1">
          <mxGeometry width="50" height="50" relative="1" as="geometry">
            <mxPoint x="370" y="340" as="sourcePoint" />
            <mxPoint x="60" y="160" as="targetPoint" />
            <Array as="points">
              <mxPoint x="20" y="450" />
              <mxPoint x="20" y="160" />
            </Array>
          </mxGeometry>
        </mxCell>
        <mxCell id="2fvg3ockp_e8WgSGMWj1-17" value="Import Data&lt;br&gt;246,972 Rows&lt;br&gt;208k negative, 4k pre-diabetic, 34k diabetic" style="rounded=1;whiteSpace=wrap;html=1;" parent="1" vertex="1">
          <mxGeometry x="310" y="130" width="265" height="60" as="geometry" />
        </mxCell>
        <mxCell id="2fvg3ockp_e8WgSGMWj1-31" value="" style="edgeStyle=orthogonalEdgeStyle;rounded=0;orthogonalLoop=1;jettySize=auto;html=1;" parent="1" source="2fvg3ockp_e8WgSGMWj1-19" target="2fvg3ockp_e8WgSGMWj1-30" edge="1">
          <mxGeometry relative="1" as="geometry" />
        </mxCell>
        <mxCell id="2fvg3ockp_e8WgSGMWj1-19" value="Multiclass" style="rounded=1;whiteSpace=wrap;html=1;" parent="1" vertex="1">
          <mxGeometry x="164" y="214" width="120" height="60" as="geometry" />
        </mxCell>
        <mxCell id="2fvg3ockp_e8WgSGMWj1-20" value="Binary" style="rounded=1;whiteSpace=wrap;html=1;" parent="1" vertex="1">
          <mxGeometry x="604" y="214" width="120" height="60" as="geometry" />
        </mxCell>
        <mxCell id="2fvg3ockp_e8WgSGMWj1-22" value="Oversample Minority Classes&lt;br&gt;468,000 rows" style="rounded=1;whiteSpace=wrap;html=1;" parent="1" vertex="1">
          <mxGeometry x="164" y="384" width="120" height="60" as="geometry" />
        </mxCell>
        <mxCell id="2fvg3ockp_e8WgSGMWj1-23" value="Undersample Majority Classes&lt;br&gt;10,100 rows" style="rounded=1;whiteSpace=wrap;html=1;" parent="1" vertex="1">
          <mxGeometry x="290" y="384" width="120" height="60" as="geometry" />
        </mxCell>
        <mxCell id="2fvg3ockp_e8WgSGMWj1-44" value="" style="edgeStyle=orthogonalEdgeStyle;rounded=0;orthogonalLoop=1;jettySize=auto;html=1;" parent="1" source="2fvg3ockp_e8WgSGMWj1-26" target="2fvg3ockp_e8WgSGMWj1-27" edge="1">
          <mxGeometry relative="1" as="geometry" />
        </mxCell>
        <mxCell id="2fvg3ockp_e8WgSGMWj1-26" value="Train, Test, Split" style="rounded=1;whiteSpace=wrap;html=1;" parent="1" vertex="1">
          <mxGeometry x="604" y="288" width="120" height="60" as="geometry" />
        </mxCell>
        <mxCell id="2fvg3ockp_e8WgSGMWj1-27" value="Oversample Minority Classes&lt;br style=&quot;border-color: var(--border-color);&quot;&gt;312,000 rows" style="rounded=1;whiteSpace=wrap;html=1;" parent="1" vertex="1">
          <mxGeometry x="604" y="384" width="120" height="60" as="geometry" />
        </mxCell>
        <mxCell id="2fvg3ockp_e8WgSGMWj1-28" value="Undersample Majority Classes&lt;br style=&quot;border-color: var(--border-color);&quot;&gt;58,300 rows" style="rounded=1;whiteSpace=wrap;html=1;" parent="1" vertex="1">
          <mxGeometry x="730" y="384" width="120" height="60" as="geometry" />
        </mxCell>
        <mxCell id="2fvg3ockp_e8WgSGMWj1-42" value="" style="edgeStyle=orthogonalEdgeStyle;rounded=0;orthogonalLoop=1;jettySize=auto;html=1;" parent="1" source="2fvg3ockp_e8WgSGMWj1-30" target="2fvg3ockp_e8WgSGMWj1-22" edge="1">
          <mxGeometry relative="1" as="geometry" />
        </mxCell>
        <mxCell id="2fvg3ockp_e8WgSGMWj1-30" value="Train, Test, Split" style="rounded=1;whiteSpace=wrap;html=1;" parent="1" vertex="1">
          <mxGeometry x="164" y="288" width="120" height="60" as="geometry" />
        </mxCell>
        <mxCell id="2fvg3ockp_e8WgSGMWj1-33" value="" style="endArrow=classic;html=1;rounded=0;exitX=0.5;exitY=1;exitDx=0;exitDy=0;" parent="1" source="2fvg3ockp_e8WgSGMWj1-20" target="2fvg3ockp_e8WgSGMWj1-26" edge="1">
          <mxGeometry width="50" height="50" relative="1" as="geometry">
            <mxPoint x="448" y="507" as="sourcePoint" />
            <mxPoint x="498" y="457" as="targetPoint" />
          </mxGeometry>
        </mxCell>
        <mxCell id="2fvg3ockp_e8WgSGMWj1-34" value="Standard Scaler&lt;br&gt;&amp;amp; PCA&lt;br style=&quot;border-color: var(--border-color);&quot;&gt;n_components = 0.9" style="rounded=1;whiteSpace=wrap;html=1;" parent="1" vertex="1">
          <mxGeometry x="30" y="428" width="120" height="60" as="geometry" />
        </mxCell>
        <mxCell id="2fvg3ockp_e8WgSGMWj1-38" value="Standard Scaler&lt;br&gt;&amp;amp; PCA&lt;br&gt;n_components = 0.9" style="rounded=1;whiteSpace=wrap;html=1;" parent="1" vertex="1">
          <mxGeometry x="470" y="428" width="120" height="60" as="geometry" />
        </mxCell>
        <mxCell id="2fvg3ockp_e8WgSGMWj1-40" value="" style="endArrow=classic;html=1;rounded=0;exitX=0;exitY=0.5;exitDx=0;exitDy=0;entryX=0.5;entryY=0;entryDx=0;entryDy=0;" parent="1" source="2fvg3ockp_e8WgSGMWj1-22" target="2fvg3ockp_e8WgSGMWj1-34" edge="1">
          <mxGeometry width="50" height="50" relative="1" as="geometry">
            <mxPoint x="370" y="568" as="sourcePoint" />
            <mxPoint x="420" y="518" as="targetPoint" />
            <Array as="points">
              <mxPoint x="90" y="414" />
            </Array>
          </mxGeometry>
        </mxCell>
        <mxCell id="2fvg3ockp_e8WgSGMWj1-41" value="" style="endArrow=classic;html=1;rounded=0;exitX=0;exitY=0.5;exitDx=0;exitDy=0;entryX=0.5;entryY=0;entryDx=0;entryDy=0;" parent="1" source="2fvg3ockp_e8WgSGMWj1-27" target="2fvg3ockp_e8WgSGMWj1-38" edge="1">
          <mxGeometry width="50" height="50" relative="1" as="geometry">
            <mxPoint x="370" y="568" as="sourcePoint" />
            <mxPoint x="420" y="518" as="targetPoint" />
            <Array as="points">
              <mxPoint x="530" y="414" />
            </Array>
          </mxGeometry>
        </mxCell>
        <mxCell id="2fvg3ockp_e8WgSGMWj1-43" value="" style="endArrow=classic;html=1;rounded=0;exitX=0.75;exitY=1;exitDx=0;exitDy=0;entryX=0.5;entryY=0;entryDx=0;entryDy=0;" parent="1" source="2fvg3ockp_e8WgSGMWj1-30" target="2fvg3ockp_e8WgSGMWj1-23" edge="1">
          <mxGeometry width="50" height="50" relative="1" as="geometry">
            <mxPoint x="370" y="568" as="sourcePoint" />
            <mxPoint x="420" y="518" as="targetPoint" />
            <Array as="points">
              <mxPoint x="254" y="368" />
              <mxPoint x="350" y="368" />
            </Array>
          </mxGeometry>
        </mxCell>
        <mxCell id="2fvg3ockp_e8WgSGMWj1-45" value="" style="endArrow=classic;html=1;rounded=0;exitX=0.75;exitY=1;exitDx=0;exitDy=0;entryX=0.5;entryY=0;entryDx=0;entryDy=0;" parent="1" source="2fvg3ockp_e8WgSGMWj1-26" target="2fvg3ockp_e8WgSGMWj1-28" edge="1">
          <mxGeometry width="50" height="50" relative="1" as="geometry">
            <mxPoint x="370" y="568" as="sourcePoint" />
            <mxPoint x="420" y="518" as="targetPoint" />
            <Array as="points">
              <mxPoint x="694" y="368" />
              <mxPoint x="790" y="368" />
            </Array>
          </mxGeometry>
        </mxCell>
        <mxCell id="2fvg3ockp_e8WgSGMWj1-46" value="" style="rounded=1;whiteSpace=wrap;html=1;" parent="1" vertex="1">
          <mxGeometry x="20" y="503" width="830" height="70" as="geometry" />
        </mxCell>
        <mxCell id="2fvg3ockp_e8WgSGMWj1-47" value="Model Testing" style="text;html=1;strokeColor=none;fillColor=none;align=center;verticalAlign=middle;whiteSpace=wrap;rounded=0;" parent="1" vertex="1">
          <mxGeometry x="20" y="523" width="60" height="30" as="geometry" />
        </mxCell>
        <mxCell id="2fvg3ockp_e8WgSGMWj1-49" value="" style="endArrow=classic;html=1;rounded=0;exitX=0.5;exitY=1;exitDx=0;exitDy=0;entryX=0.084;entryY=0.001;entryDx=0;entryDy=0;entryPerimeter=0;" parent="1" source="2fvg3ockp_e8WgSGMWj1-34" edge="1" target="2fvg3ockp_e8WgSGMWj1-46">
          <mxGeometry width="50" height="50" relative="1" as="geometry">
            <mxPoint x="110" y="578" as="sourcePoint" />
            <mxPoint x="90" y="520" as="targetPoint" />
          </mxGeometry>
        </mxCell>
        <mxCell id="2fvg3ockp_e8WgSGMWj1-51" value="" style="endArrow=classic;html=1;rounded=0;exitX=0.5;exitY=1;exitDx=0;exitDy=0;entryX=0.247;entryY=-0.003;entryDx=0;entryDy=0;entryPerimeter=0;" parent="1" source="2fvg3ockp_e8WgSGMWj1-22" target="2fvg3ockp_e8WgSGMWj1-46" edge="1">
          <mxGeometry width="50" height="50" relative="1" as="geometry">
            <mxPoint x="210" y="548" as="sourcePoint" />
            <mxPoint x="260" y="498" as="targetPoint" />
          </mxGeometry>
        </mxCell>
        <mxCell id="2fvg3ockp_e8WgSGMWj1-52" value="" style="endArrow=classic;html=1;rounded=0;exitX=0.5;exitY=1;exitDx=0;exitDy=0;entryX=0.399;entryY=0.01;entryDx=0;entryDy=0;entryPerimeter=0;" parent="1" source="2fvg3ockp_e8WgSGMWj1-23" target="2fvg3ockp_e8WgSGMWj1-46" edge="1">
          <mxGeometry width="50" height="50" relative="1" as="geometry">
            <mxPoint x="310" y="548" as="sourcePoint" />
            <mxPoint x="360" y="498" as="targetPoint" />
          </mxGeometry>
        </mxCell>
        <mxCell id="2fvg3ockp_e8WgSGMWj1-53" value="" style="endArrow=classic;html=1;rounded=0;exitX=0.5;exitY=1;exitDx=0;exitDy=0;entryX=0.614;entryY=0.001;entryDx=0;entryDy=0;entryPerimeter=0;" parent="1" source="2fvg3ockp_e8WgSGMWj1-38" target="2fvg3ockp_e8WgSGMWj1-46" edge="1">
          <mxGeometry width="50" height="50" relative="1" as="geometry">
            <mxPoint x="550" y="538" as="sourcePoint" />
            <mxPoint x="600" y="488" as="targetPoint" />
          </mxGeometry>
        </mxCell>
        <mxCell id="2fvg3ockp_e8WgSGMWj1-54" value="" style="endArrow=classic;html=1;rounded=0;exitX=0.5;exitY=1;exitDx=0;exitDy=0;entryX=0.776;entryY=0.001;entryDx=0;entryDy=0;entryPerimeter=0;" parent="1" source="2fvg3ockp_e8WgSGMWj1-27" target="2fvg3ockp_e8WgSGMWj1-46" edge="1">
          <mxGeometry width="50" height="50" relative="1" as="geometry">
            <mxPoint x="550" y="538" as="sourcePoint" />
            <mxPoint x="600" y="488" as="targetPoint" />
          </mxGeometry>
        </mxCell>
        <mxCell id="2fvg3ockp_e8WgSGMWj1-55" value="" style="endArrow=classic;html=1;rounded=0;exitX=0.5;exitY=1;exitDx=0;exitDy=0;entryX=0.928;entryY=-0.004;entryDx=0;entryDy=0;entryPerimeter=0;" parent="1" source="2fvg3ockp_e8WgSGMWj1-28" target="2fvg3ockp_e8WgSGMWj1-46" edge="1">
          <mxGeometry width="50" height="50" relative="1" as="geometry">
            <mxPoint x="620" y="538" as="sourcePoint" />
            <mxPoint x="670" y="488" as="targetPoint" />
          </mxGeometry>
        </mxCell>
        <mxCell id="2fvg3ockp_e8WgSGMWj1-56" value="RandomForestClassifier" style="rounded=1;whiteSpace=wrap;html=1;fillColor=#fff2cc;strokeColor=#d6b656;" parent="1" vertex="1">
          <mxGeometry x="300" y="523" width="140" height="30" as="geometry" />
        </mxCell>
        <mxCell id="2fvg3ockp_e8WgSGMWj1-58" value="Logistic Regression" style="rounded=1;whiteSpace=wrap;html=1;fillColor=#fff2cc;strokeColor=#d6b656;" parent="1" vertex="1">
          <mxGeometry x="480" y="523" width="140" height="30" as="geometry" />
        </mxCell>
        <mxCell id="2fvg3ockp_e8WgSGMWj1-59" value="Support Vector Classifer (SVC)" style="rounded=1;whiteSpace=wrap;html=1;fillColor=#f8cecc;strokeColor=#b85450;" parent="1" vertex="1">
          <mxGeometry x="660" y="523" width="140" height="30" as="geometry" />
        </mxCell>
        <mxCell id="2fvg3ockp_e8WgSGMWj1-63" value="" style="edgeStyle=orthogonalEdgeStyle;rounded=0;orthogonalLoop=1;jettySize=auto;html=1;" parent="1" source="2fvg3ockp_e8WgSGMWj1-60" target="2fvg3ockp_e8WgSGMWj1-62" edge="1">
          <mxGeometry relative="1" as="geometry" />
        </mxCell>
        <mxCell id="2fvg3ockp_e8WgSGMWj1-65" value="" style="edgeStyle=orthogonalEdgeStyle;rounded=0;orthogonalLoop=1;jettySize=auto;html=1;" parent="1" source="2fvg3ockp_e8WgSGMWj1-60" target="2fvg3ockp_e8WgSGMWj1-64" edge="1">
          <mxGeometry relative="1" as="geometry" />
        </mxCell>
        <mxCell id="KBgtIji8I2RT1WnsnsQp-5" value="" style="edgeStyle=orthogonalEdgeStyle;rounded=0;orthogonalLoop=1;jettySize=auto;html=1;" edge="1" parent="1" source="2fvg3ockp_e8WgSGMWj1-60" target="KBgtIji8I2RT1WnsnsQp-4">
          <mxGeometry relative="1" as="geometry" />
        </mxCell>
        <mxCell id="2fvg3ockp_e8WgSGMWj1-60" value="Down-Select&amp;nbsp;for further tuning&lt;br&gt;&amp;nbsp;Binary Data&lt;br&gt;RF / LR / GBC" style="rounded=1;whiteSpace=wrap;html=1;" parent="1" vertex="1">
          <mxGeometry x="342.5" y="593" width="185" height="60" as="geometry" />
        </mxCell>
        <mxCell id="2fvg3ockp_e8WgSGMWj1-61" value="" style="endArrow=classic;html=1;rounded=0;exitX=0.5;exitY=1;exitDx=0;exitDy=0;" parent="1" source="2fvg3ockp_e8WgSGMWj1-46" target="2fvg3ockp_e8WgSGMWj1-60" edge="1">
          <mxGeometry width="50" height="50" relative="1" as="geometry">
            <mxPoint x="430" y="563" as="sourcePoint" />
            <mxPoint x="480" y="513" as="targetPoint" />
          </mxGeometry>
        </mxCell>
        <mxCell id="2fvg3ockp_e8WgSGMWj1-69" value="" style="edgeStyle=orthogonalEdgeStyle;rounded=0;orthogonalLoop=1;jettySize=auto;html=1;" parent="1" source="2fvg3ockp_e8WgSGMWj1-62" target="2fvg3ockp_e8WgSGMWj1-68" edge="1">
          <mxGeometry relative="1" as="geometry" />
        </mxCell>
        <mxCell id="2fvg3ockp_e8WgSGMWj1-62" value="Logistic Regression&lt;br&gt;GridSearchCV" style="rounded=1;whiteSpace=wrap;html=1;" parent="1" vertex="1">
          <mxGeometry x="607.5" y="593" width="185" height="60" as="geometry" />
        </mxCell>
        <mxCell id="2fvg3ockp_e8WgSGMWj1-67" value="" style="edgeStyle=orthogonalEdgeStyle;rounded=0;orthogonalLoop=1;jettySize=auto;html=1;" parent="1" source="2fvg3ockp_e8WgSGMWj1-64" target="2fvg3ockp_e8WgSGMWj1-66" edge="1">
          <mxGeometry relative="1" as="geometry" />
        </mxCell>
        <mxCell id="2fvg3ockp_e8WgSGMWj1-64" value="Random Forest Classifer&lt;br&gt;GridSearchCV" style="rounded=1;whiteSpace=wrap;html=1;" parent="1" vertex="1">
          <mxGeometry x="77.5" y="593" width="185" height="60" as="geometry" />
        </mxCell>
        <mxCell id="2fvg3ockp_e8WgSGMWj1-66" value="Poor Performance" style="whiteSpace=wrap;html=1;rounded=1;fillColor=#f8cecc;strokeColor=#b85450;" parent="1" vertex="1">
          <mxGeometry x="110" y="673" width="120" height="22" as="geometry" />
        </mxCell>
        <mxCell id="2fvg3ockp_e8WgSGMWj1-68" value="Poor Performance" style="whiteSpace=wrap;html=1;rounded=1;fillColor=#f8cecc;strokeColor=#b85450;" parent="1" vertex="1">
          <mxGeometry x="640" y="673" width="120" height="22" as="geometry" />
        </mxCell>
        <mxCell id="2fvg3ockp_e8WgSGMWj1-70" value="" style="endArrow=classic;html=1;rounded=0;exitX=0.75;exitY=1;exitDx=0;exitDy=0;entryX=0.5;entryY=0;entryDx=0;entryDy=0;" parent="1" source="2fvg3ockp_e8WgSGMWj1-17" target="2fvg3ockp_e8WgSGMWj1-20" edge="1">
          <mxGeometry width="50" height="50" relative="1" as="geometry">
            <mxPoint x="310" y="560" as="sourcePoint" />
            <mxPoint x="360" y="510" as="targetPoint" />
            <Array as="points">
              <mxPoint x="509" y="200" />
              <mxPoint x="664" y="200" />
            </Array>
          </mxGeometry>
        </mxCell>
        <mxCell id="2fvg3ockp_e8WgSGMWj1-71" value="" style="endArrow=classic;html=1;rounded=0;exitX=0.25;exitY=1;exitDx=0;exitDy=0;entryX=0.5;entryY=0;entryDx=0;entryDy=0;" parent="1" source="2fvg3ockp_e8WgSGMWj1-17" target="2fvg3ockp_e8WgSGMWj1-19" edge="1">
          <mxGeometry width="50" height="50" relative="1" as="geometry">
            <mxPoint x="390" y="270" as="sourcePoint" />
            <mxPoint x="440" y="220" as="targetPoint" />
            <Array as="points">
              <mxPoint x="376" y="200" />
              <mxPoint x="224" y="200" />
            </Array>
          </mxGeometry>
        </mxCell>
        <mxCell id="KBgtIji8I2RT1WnsnsQp-1" value="GradientBoostingClassifier" style="rounded=1;whiteSpace=wrap;html=1;fillColor=#fff2cc;strokeColor=#d6b656;" vertex="1" parent="1">
          <mxGeometry x="110" y="523" width="154" height="30" as="geometry" />
        </mxCell>
        <mxCell id="KBgtIji8I2RT1WnsnsQp-7" value="" style="edgeStyle=orthogonalEdgeStyle;rounded=0;orthogonalLoop=1;jettySize=auto;html=1;" edge="1" parent="1" source="KBgtIji8I2RT1WnsnsQp-4" target="KBgtIji8I2RT1WnsnsQp-6">
          <mxGeometry relative="1" as="geometry" />
        </mxCell>
        <mxCell id="KBgtIji8I2RT1WnsnsQp-4" value="GradientBoostingClassifier&lt;br&gt;GridSearchCV" style="rounded=1;whiteSpace=wrap;html=1;" vertex="1" parent="1">
          <mxGeometry x="342.5" y="673" width="185" height="60" as="geometry" />
        </mxCell>
        <mxCell id="KBgtIji8I2RT1WnsnsQp-6" value="Marginal Performance" style="whiteSpace=wrap;html=1;rounded=1;fillColor=#fff2cc;strokeColor=#d6b656;" vertex="1" parent="1">
          <mxGeometry x="362.5" y="750" width="145" height="22" as="geometry" />
        </mxCell>
      </root>
    </mxGraphModel>
  </diagram>
</mxfile>
